<mxfile host="Electron" agent="Mozilla/5.0 (Macintosh; Intel Mac OS X 10_15_7) AppleWebKit/537.36 (KHTML, like Gecko) draw.io/26.0.9 Chrome/128.0.6613.186 Electron/32.2.5 Safari/537.36" version="26.0.9">
  <diagram name="RestController" id="okP5CM5TsCw9q2JoPPvN">
    <mxGraphModel dx="1876" dy="772" grid="1" gridSize="10" guides="1" tooltips="1" connect="1" arrows="1" fold="1" page="1" pageScale="1" pageWidth="850" pageHeight="1100" math="0" shadow="0">
      <root>
        <mxCell id="0" />
        <mxCell id="1" parent="0" />
        <mxCell id="s01WvW6I6IR07NwVpGXd-22" value="" style="group" vertex="1" connectable="0" parent="1">
          <mxGeometry x="350" y="469" width="180" height="120" as="geometry" />
        </mxCell>
        <mxCell id="s01WvW6I6IR07NwVpGXd-18" value="" style="shape=ellipse;container=0;horizontal=1;horizontalStack=0;resizeParent=1;resizeParentMax=0;resizeLast=0;html=1;dashed=0;collapsible=0;fillColor=#dae8fc;strokeColor=#6c8ebf;" vertex="1" parent="s01WvW6I6IR07NwVpGXd-22">
          <mxGeometry width="180" height="120" as="geometry" />
        </mxCell>
        <mxCell id="s01WvW6I6IR07NwVpGXd-19" value="@RequestMapping" style="html=1;strokeColor=none;fillColor=none;align=center;verticalAlign=middle;rotatable=0;whiteSpace=wrap;fontStyle=1;container=0;" vertex="1" parent="s01WvW6I6IR07NwVpGXd-22">
          <mxGeometry y="5" width="180" height="30" as="geometry" />
        </mxCell>
        <mxCell id="s01WvW6I6IR07NwVpGXd-20" value="" style="line;strokeWidth=1;fillColor=none;rotatable=0;labelPosition=right;points=[];portConstraint=eastwest;dashed=0;resizeWidth=1;container=0;" vertex="1" parent="s01WvW6I6IR07NwVpGXd-22">
          <mxGeometry x="9" y="30" width="162" height="10" as="geometry" />
        </mxCell>
        <mxCell id="s01WvW6I6IR07NwVpGXd-21" value="Defines the base URL for API endpoints" style="text;html=1;align=center;verticalAlign=middle;rotatable=0;fillColor=none;strokeColor=none;whiteSpace=wrap;container=0;" vertex="1" parent="s01WvW6I6IR07NwVpGXd-22">
          <mxGeometry y="40" width="180" height="70" as="geometry" />
        </mxCell>
        <mxCell id="s01WvW6I6IR07NwVpGXd-24" value="" style="group" vertex="1" connectable="0" parent="1">
          <mxGeometry x="-100" y="470" width="180" height="120" as="geometry" />
        </mxCell>
        <mxCell id="s01WvW6I6IR07NwVpGXd-4" value="" style="shape=ellipse;container=0;horizontal=1;horizontalStack=0;resizeParent=1;resizeParentMax=0;resizeLast=0;html=1;dashed=0;collapsible=0;fillColor=#dae8fc;strokeColor=#6c8ebf;" vertex="1" parent="s01WvW6I6IR07NwVpGXd-24">
          <mxGeometry width="180" height="120" as="geometry" />
        </mxCell>
        <mxCell id="s01WvW6I6IR07NwVpGXd-5" value="@RestController" style="html=1;strokeColor=none;fillColor=none;align=center;verticalAlign=middle;rotatable=0;whiteSpace=wrap;fontStyle=1;container=0;" vertex="1" parent="s01WvW6I6IR07NwVpGXd-24">
          <mxGeometry y="5" width="180" height="30" as="geometry" />
        </mxCell>
        <mxCell id="s01WvW6I6IR07NwVpGXd-6" value="" style="line;strokeWidth=1;fillColor=none;rotatable=0;labelPosition=right;points=[];portConstraint=eastwest;dashed=0;resizeWidth=1;container=0;" vertex="1" parent="s01WvW6I6IR07NwVpGXd-24">
          <mxGeometry x="9" y="30" width="162" height="10" as="geometry" />
        </mxCell>
        <mxCell id="s01WvW6I6IR07NwVpGXd-7" value="Marks a class as a REST API controller" style="text;html=1;align=center;verticalAlign=middle;rotatable=0;fillColor=none;strokeColor=none;whiteSpace=wrap;container=0;" vertex="1" parent="s01WvW6I6IR07NwVpGXd-24">
          <mxGeometry y="40" width="180" height="70" as="geometry" />
        </mxCell>
        <mxCell id="s01WvW6I6IR07NwVpGXd-26" value="" style="fontSize=12;html=1;endArrow=ERoneToMany;rounded=0;exitX=1;exitY=0.25;exitDx=0;exitDy=0;entryX=0;entryY=0.25;entryDx=0;entryDy=0;startArrow=none;startFill=0;" edge="1" parent="1" source="s01WvW6I6IR07NwVpGXd-7" target="s01WvW6I6IR07NwVpGXd-21">
          <mxGeometry width="100" height="100" relative="1" as="geometry">
            <mxPoint x="150" y="660" as="sourcePoint" />
            <mxPoint x="250" y="560" as="targetPoint" />
          </mxGeometry>
        </mxCell>
        <mxCell id="s01WvW6I6IR07NwVpGXd-65" value="defines" style="edgeLabel;html=1;align=center;verticalAlign=middle;resizable=0;points=[];" vertex="1" connectable="0" parent="s01WvW6I6IR07NwVpGXd-26">
          <mxGeometry x="-0.1429" y="-2" relative="1" as="geometry">
            <mxPoint y="1" as="offset" />
          </mxGeometry>
        </mxCell>
        <mxCell id="s01WvW6I6IR07NwVpGXd-27" value="" style="group" vertex="1" connectable="0" parent="1">
          <mxGeometry x="600" y="360" width="180" height="120" as="geometry" />
        </mxCell>
        <mxCell id="s01WvW6I6IR07NwVpGXd-28" value="" style="shape=ellipse;container=0;horizontal=1;horizontalStack=0;resizeParent=1;resizeParentMax=0;resizeLast=0;html=1;dashed=0;collapsible=0;fillColor=#dae8fc;strokeColor=#6c8ebf;" vertex="1" parent="s01WvW6I6IR07NwVpGXd-27">
          <mxGeometry width="180" height="120" as="geometry" />
        </mxCell>
        <mxCell id="s01WvW6I6IR07NwVpGXd-29" value="@GetMapping" style="html=1;strokeColor=none;fillColor=none;align=center;verticalAlign=middle;rotatable=0;whiteSpace=wrap;fontStyle=1;container=0;" vertex="1" parent="s01WvW6I6IR07NwVpGXd-27">
          <mxGeometry y="5" width="180" height="30" as="geometry" />
        </mxCell>
        <mxCell id="s01WvW6I6IR07NwVpGXd-30" value="" style="line;strokeWidth=1;fillColor=none;rotatable=0;labelPosition=right;points=[];portConstraint=eastwest;dashed=0;resizeWidth=1;container=0;" vertex="1" parent="s01WvW6I6IR07NwVpGXd-27">
          <mxGeometry x="9" y="30" width="162" height="10" as="geometry" />
        </mxCell>
        <mxCell id="s01WvW6I6IR07NwVpGXd-31" value="&lt;table&gt;&lt;tbody&gt;&lt;tr data-end=&quot;4963&quot; data-start=&quot;4924&quot;&gt;&lt;td&gt;Maps &lt;code data-end=&quot;4952&quot; data-start=&quot;4947&quot;&gt;GET&lt;/code&gt; requests&lt;/td&gt;&lt;/tr&gt;&lt;/tbody&gt;&lt;/table&gt;" style="text;html=1;align=center;verticalAlign=middle;rotatable=0;fillColor=none;strokeColor=none;whiteSpace=wrap;container=0;" vertex="1" parent="s01WvW6I6IR07NwVpGXd-27">
          <mxGeometry y="40" width="180" height="70" as="geometry" />
        </mxCell>
        <mxCell id="s01WvW6I6IR07NwVpGXd-32" value="" style="endArrow=block;startArrow=none;endFill=0;startFill=0;endSize=8;html=1;verticalAlign=bottom;dashed=1;labelBackgroundColor=none;rounded=0;entryX=1;entryY=0;entryDx=0;entryDy=0;" edge="1" parent="1" source="s01WvW6I6IR07NwVpGXd-31" target="s01WvW6I6IR07NwVpGXd-21">
          <mxGeometry width="160" relative="1" as="geometry">
            <mxPoint x="380" y="200" as="sourcePoint" />
            <mxPoint x="540" y="200" as="targetPoint" />
          </mxGeometry>
        </mxCell>
        <mxCell id="s01WvW6I6IR07NwVpGXd-33" value="" style="group" vertex="1" connectable="0" parent="1">
          <mxGeometry x="650" y="490" width="180" height="120" as="geometry" />
        </mxCell>
        <mxCell id="s01WvW6I6IR07NwVpGXd-34" value="" style="shape=ellipse;container=0;horizontal=1;horizontalStack=0;resizeParent=1;resizeParentMax=0;resizeLast=0;html=1;dashed=0;collapsible=0;fillColor=#dae8fc;strokeColor=#6c8ebf;" vertex="1" parent="s01WvW6I6IR07NwVpGXd-33">
          <mxGeometry width="180" height="120" as="geometry" />
        </mxCell>
        <mxCell id="s01WvW6I6IR07NwVpGXd-35" value="@PostMapping" style="html=1;strokeColor=none;fillColor=none;align=center;verticalAlign=middle;rotatable=0;whiteSpace=wrap;fontStyle=1;container=0;" vertex="1" parent="s01WvW6I6IR07NwVpGXd-33">
          <mxGeometry y="5" width="180" height="30" as="geometry" />
        </mxCell>
        <mxCell id="s01WvW6I6IR07NwVpGXd-36" value="" style="line;strokeWidth=1;fillColor=none;rotatable=0;labelPosition=right;points=[];portConstraint=eastwest;dashed=0;resizeWidth=1;container=0;" vertex="1" parent="s01WvW6I6IR07NwVpGXd-33">
          <mxGeometry x="9" y="30" width="162" height="10" as="geometry" />
        </mxCell>
        <mxCell id="s01WvW6I6IR07NwVpGXd-37" value="Maps&amp;nbsp;&lt;code data-end=&quot;4952&quot; data-start=&quot;4947&quot;&gt;POST&lt;/code&gt;&amp;nbsp;requests" style="text;html=1;align=center;verticalAlign=middle;rotatable=0;fillColor=none;strokeColor=none;whiteSpace=wrap;container=0;" vertex="1" parent="s01WvW6I6IR07NwVpGXd-33">
          <mxGeometry y="40" width="180" height="70" as="geometry" />
        </mxCell>
        <mxCell id="s01WvW6I6IR07NwVpGXd-38" value="" style="group" vertex="1" connectable="0" parent="1">
          <mxGeometry x="650" y="620" width="180" height="120" as="geometry" />
        </mxCell>
        <mxCell id="s01WvW6I6IR07NwVpGXd-39" value="" style="shape=ellipse;container=0;horizontal=1;horizontalStack=0;resizeParent=1;resizeParentMax=0;resizeLast=0;html=1;dashed=0;collapsible=0;fillColor=#dae8fc;strokeColor=#6c8ebf;" vertex="1" parent="s01WvW6I6IR07NwVpGXd-38">
          <mxGeometry width="180" height="120" as="geometry" />
        </mxCell>
        <mxCell id="s01WvW6I6IR07NwVpGXd-40" value="@PutMapping" style="html=1;strokeColor=none;fillColor=none;align=center;verticalAlign=middle;rotatable=0;whiteSpace=wrap;fontStyle=1;container=0;" vertex="1" parent="s01WvW6I6IR07NwVpGXd-38">
          <mxGeometry y="5" width="180" height="30" as="geometry" />
        </mxCell>
        <mxCell id="s01WvW6I6IR07NwVpGXd-41" value="" style="line;strokeWidth=1;fillColor=none;rotatable=0;labelPosition=right;points=[];portConstraint=eastwest;dashed=0;resizeWidth=1;container=0;" vertex="1" parent="s01WvW6I6IR07NwVpGXd-38">
          <mxGeometry x="9" y="30" width="162" height="10" as="geometry" />
        </mxCell>
        <mxCell id="s01WvW6I6IR07NwVpGXd-42" value="&lt;table&gt;&lt;tbody&gt;&lt;tr data-end=&quot;4963&quot; data-start=&quot;4924&quot;&gt;&lt;td&gt;Maps &lt;code data-end=&quot;4952&quot; data-start=&quot;4947&quot;&gt;PUT&lt;/code&gt; requests&lt;/td&gt;&lt;/tr&gt;&lt;/tbody&gt;&lt;/table&gt;" style="text;html=1;align=center;verticalAlign=middle;rotatable=0;fillColor=none;strokeColor=none;whiteSpace=wrap;container=0;" vertex="1" parent="s01WvW6I6IR07NwVpGXd-38">
          <mxGeometry y="40" width="180" height="70" as="geometry" />
        </mxCell>
        <mxCell id="s01WvW6I6IR07NwVpGXd-43" value="" style="group" vertex="1" connectable="0" parent="1">
          <mxGeometry x="510" y="710" width="210" height="170" as="geometry" />
        </mxCell>
        <mxCell id="s01WvW6I6IR07NwVpGXd-44" value="" style="shape=ellipse;container=0;horizontal=1;horizontalStack=0;resizeParent=1;resizeParentMax=0;resizeLast=0;html=1;dashed=0;collapsible=0;fillColor=#dae8fc;strokeColor=#6c8ebf;" vertex="1" parent="s01WvW6I6IR07NwVpGXd-43">
          <mxGeometry width="180" height="120" as="geometry" />
        </mxCell>
        <mxCell id="s01WvW6I6IR07NwVpGXd-45" value="@PatchMapping" style="html=1;strokeColor=none;fillColor=none;align=center;verticalAlign=middle;rotatable=0;whiteSpace=wrap;fontStyle=1;container=0;" vertex="1" parent="s01WvW6I6IR07NwVpGXd-43">
          <mxGeometry y="5" width="180" height="30" as="geometry" />
        </mxCell>
        <mxCell id="s01WvW6I6IR07NwVpGXd-46" value="" style="line;strokeWidth=1;fillColor=none;rotatable=0;labelPosition=right;points=[];portConstraint=eastwest;dashed=0;resizeWidth=1;container=0;" vertex="1" parent="s01WvW6I6IR07NwVpGXd-43">
          <mxGeometry x="9" y="30" width="162" height="10" as="geometry" />
        </mxCell>
        <mxCell id="s01WvW6I6IR07NwVpGXd-47" value="Maps PATCH&amp;nbsp;requests" style="text;html=1;align=center;verticalAlign=middle;rotatable=0;fillColor=none;strokeColor=none;whiteSpace=wrap;container=0;" vertex="1" parent="s01WvW6I6IR07NwVpGXd-43">
          <mxGeometry y="40" width="180" height="70" as="geometry" />
        </mxCell>
        <mxCell id="s01WvW6I6IR07NwVpGXd-48" value="" style="group" vertex="1" connectable="0" parent="1">
          <mxGeometry x="340" y="650" width="180" height="120" as="geometry" />
        </mxCell>
        <mxCell id="s01WvW6I6IR07NwVpGXd-49" value="" style="shape=ellipse;container=0;horizontal=1;horizontalStack=0;resizeParent=1;resizeParentMax=0;resizeLast=0;html=1;dashed=0;collapsible=0;fillColor=#dae8fc;strokeColor=#6c8ebf;" vertex="1" parent="s01WvW6I6IR07NwVpGXd-48">
          <mxGeometry width="180" height="120" as="geometry" />
        </mxCell>
        <mxCell id="s01WvW6I6IR07NwVpGXd-50" value="@DeleteMapping" style="html=1;strokeColor=none;fillColor=none;align=center;verticalAlign=middle;rotatable=0;whiteSpace=wrap;fontStyle=1;container=0;" vertex="1" parent="s01WvW6I6IR07NwVpGXd-48">
          <mxGeometry y="5" width="180" height="30" as="geometry" />
        </mxCell>
        <mxCell id="s01WvW6I6IR07NwVpGXd-51" value="" style="line;strokeWidth=1;fillColor=none;rotatable=0;labelPosition=right;points=[];portConstraint=eastwest;dashed=0;resizeWidth=1;container=0;" vertex="1" parent="s01WvW6I6IR07NwVpGXd-48">
          <mxGeometry x="9" y="30" width="162" height="10" as="geometry" />
        </mxCell>
        <mxCell id="s01WvW6I6IR07NwVpGXd-52" value="Maps DELETE&amp;nbsp;requests" style="text;html=1;align=center;verticalAlign=middle;rotatable=0;fillColor=none;strokeColor=none;whiteSpace=wrap;container=0;" vertex="1" parent="s01WvW6I6IR07NwVpGXd-48">
          <mxGeometry y="40" width="180" height="70" as="geometry" />
        </mxCell>
        <mxCell id="s01WvW6I6IR07NwVpGXd-53" value="" style="endArrow=block;startArrow=none;endFill=0;startFill=0;endSize=8;html=1;verticalAlign=bottom;dashed=1;labelBackgroundColor=none;rounded=0;entryX=1;entryY=0.25;entryDx=0;entryDy=0;" edge="1" parent="1" source="s01WvW6I6IR07NwVpGXd-37" target="s01WvW6I6IR07NwVpGXd-21">
          <mxGeometry width="160" relative="1" as="geometry">
            <mxPoint x="610" y="235" as="sourcePoint" />
            <mxPoint x="457" y="550" as="targetPoint" />
          </mxGeometry>
        </mxCell>
        <mxCell id="s01WvW6I6IR07NwVpGXd-54" value="" style="endArrow=block;startArrow=none;endFill=0;startFill=0;endSize=8;html=1;verticalAlign=bottom;dashed=1;labelBackgroundColor=none;rounded=0;entryX=1;entryY=0.5;entryDx=0;entryDy=0;exitX=0.061;exitY=1.033;exitDx=0;exitDy=0;exitPerimeter=0;" edge="1" parent="1" source="s01WvW6I6IR07NwVpGXd-40" target="s01WvW6I6IR07NwVpGXd-21">
          <mxGeometry width="160" relative="1" as="geometry">
            <mxPoint x="560" y="520" as="sourcePoint" />
            <mxPoint x="467" y="560" as="targetPoint" />
          </mxGeometry>
        </mxCell>
        <mxCell id="s01WvW6I6IR07NwVpGXd-55" value="" style="endArrow=block;startArrow=none;endFill=0;startFill=0;endSize=8;html=1;verticalAlign=bottom;dashed=1;labelBackgroundColor=none;rounded=0;exitX=0.25;exitY=0;exitDx=0;exitDy=0;entryX=1;entryY=0.75;entryDx=0;entryDy=0;" edge="1" parent="1" source="s01WvW6I6IR07NwVpGXd-45" target="s01WvW6I6IR07NwVpGXd-21">
          <mxGeometry width="160" relative="1" as="geometry">
            <mxPoint x="630" y="255" as="sourcePoint" />
            <mxPoint x="477" y="570" as="targetPoint" />
          </mxGeometry>
        </mxCell>
        <mxCell id="s01WvW6I6IR07NwVpGXd-56" value="" style="endArrow=block;startArrow=none;endFill=0;startFill=0;endSize=8;html=1;verticalAlign=bottom;dashed=1;labelBackgroundColor=none;rounded=0;exitX=0.5;exitY=0;exitDx=0;exitDy=0;entryX=0.861;entryY=0.957;entryDx=0;entryDy=0;entryPerimeter=0;" edge="1" parent="1" source="s01WvW6I6IR07NwVpGXd-49" target="s01WvW6I6IR07NwVpGXd-21">
          <mxGeometry width="160" relative="1" as="geometry">
            <mxPoint x="610" y="698" as="sourcePoint" />
            <mxPoint x="457" y="573" as="targetPoint" />
          </mxGeometry>
        </mxCell>
        <mxCell id="s01WvW6I6IR07NwVpGXd-57" value="" style="group" vertex="1" connectable="0" parent="1">
          <mxGeometry x="50" y="80" width="180" height="120" as="geometry" />
        </mxCell>
        <mxCell id="s01WvW6I6IR07NwVpGXd-58" value="" style="shape=ellipse;container=0;horizontal=1;horizontalStack=0;resizeParent=1;resizeParentMax=0;resizeLast=0;html=1;dashed=0;collapsible=0;fillColor=#dae8fc;strokeColor=#6c8ebf;" vertex="1" parent="s01WvW6I6IR07NwVpGXd-57">
          <mxGeometry width="180" height="120" as="geometry" />
        </mxCell>
        <mxCell id="s01WvW6I6IR07NwVpGXd-59" value="@PathVariable" style="html=1;strokeColor=none;fillColor=none;align=center;verticalAlign=middle;rotatable=0;whiteSpace=wrap;fontStyle=1;container=0;" vertex="1" parent="s01WvW6I6IR07NwVpGXd-57">
          <mxGeometry y="5" width="180" height="30" as="geometry" />
        </mxCell>
        <mxCell id="s01WvW6I6IR07NwVpGXd-60" value="" style="line;strokeWidth=1;fillColor=none;rotatable=0;labelPosition=right;points=[];portConstraint=eastwest;dashed=0;resizeWidth=1;container=0;" vertex="1" parent="s01WvW6I6IR07NwVpGXd-57">
          <mxGeometry x="9" y="30" width="162" height="10" as="geometry" />
        </mxCell>
        <mxCell id="s01WvW6I6IR07NwVpGXd-61" value="Extracts&amp;nbsp;&lt;strong data-end=&quot;5184&quot; data-start=&quot;5165&quot;&gt;path parameters&lt;/strong&gt;&amp;nbsp;from the URL" style="text;html=1;align=center;verticalAlign=middle;rotatable=0;fillColor=none;strokeColor=none;whiteSpace=wrap;container=0;" vertex="1" parent="s01WvW6I6IR07NwVpGXd-57">
          <mxGeometry y="40" width="180" height="70" as="geometry" />
        </mxCell>
        <mxCell id="s01WvW6I6IR07NwVpGXd-64" value="Request" style="ellipse;whiteSpace=wrap;html=1;fontStyle=3;fillColor=#f5f5f5;fontColor=#333333;strokeColor=#666666;" vertex="1" parent="1">
          <mxGeometry x="157" y="325" width="140" height="70" as="geometry" />
        </mxCell>
        <mxCell id="s01WvW6I6IR07NwVpGXd-66" value="" style="fontSize=12;html=1;endArrow=ERoneToMany;rounded=0;exitX=0.072;exitY=0.5;exitDx=0;exitDy=0;entryX=0.5;entryY=1;entryDx=0;entryDy=0;exitPerimeter=0;" edge="1" parent="1" source="s01WvW6I6IR07NwVpGXd-19" target="s01WvW6I6IR07NwVpGXd-64">
          <mxGeometry width="100" height="100" relative="1" as="geometry">
            <mxPoint x="137" y="450" as="sourcePoint" />
            <mxPoint x="57" y="518" as="targetPoint" />
          </mxGeometry>
        </mxCell>
        <mxCell id="s01WvW6I6IR07NwVpGXd-68" value="" style="endArrow=block;startArrow=none;endFill=0;startFill=0;endSize=8;html=1;verticalAlign=bottom;dashed=1;labelBackgroundColor=none;rounded=0;entryX=0.5;entryY=0;entryDx=0;entryDy=0;exitX=0.644;exitY=1.017;exitDx=0;exitDy=0;exitPerimeter=0;" edge="1" parent="1" source="s01WvW6I6IR07NwVpGXd-58" target="s01WvW6I6IR07NwVpGXd-64">
          <mxGeometry width="160" relative="1" as="geometry">
            <mxPoint x="150" y="295" as="sourcePoint" />
            <mxPoint x="100" y="400" as="targetPoint" />
          </mxGeometry>
        </mxCell>
        <mxCell id="s01WvW6I6IR07NwVpGXd-69" value="" style="group" vertex="1" connectable="0" parent="1">
          <mxGeometry x="-53" y="190" width="180" height="120" as="geometry" />
        </mxCell>
        <mxCell id="s01WvW6I6IR07NwVpGXd-70" value="" style="shape=ellipse;container=0;horizontal=1;horizontalStack=0;resizeParent=1;resizeParentMax=0;resizeLast=0;html=1;dashed=0;collapsible=0;fillColor=#dae8fc;strokeColor=#6c8ebf;" vertex="1" parent="s01WvW6I6IR07NwVpGXd-69">
          <mxGeometry width="180" height="120" as="geometry" />
        </mxCell>
        <mxCell id="s01WvW6I6IR07NwVpGXd-71" value="@RequestParam" style="html=1;strokeColor=none;fillColor=none;align=center;verticalAlign=middle;rotatable=0;whiteSpace=wrap;fontStyle=1;container=0;" vertex="1" parent="s01WvW6I6IR07NwVpGXd-69">
          <mxGeometry y="5" width="180" height="30" as="geometry" />
        </mxCell>
        <mxCell id="s01WvW6I6IR07NwVpGXd-72" value="" style="line;strokeWidth=1;fillColor=none;rotatable=0;labelPosition=right;points=[];portConstraint=eastwest;dashed=0;resizeWidth=1;container=0;" vertex="1" parent="s01WvW6I6IR07NwVpGXd-69">
          <mxGeometry x="9" y="30" width="162" height="10" as="geometry" />
        </mxCell>
        <mxCell id="s01WvW6I6IR07NwVpGXd-73" value="Extracts&amp;nbsp;&lt;strong data-end=&quot;5249&quot; data-start=&quot;5229&quot;&gt;query parameters&lt;/strong&gt;&amp;nbsp;from the URL" style="text;html=1;align=center;verticalAlign=middle;rotatable=0;fillColor=none;strokeColor=none;whiteSpace=wrap;container=0;" vertex="1" parent="s01WvW6I6IR07NwVpGXd-69">
          <mxGeometry y="40" width="180" height="70" as="geometry" />
        </mxCell>
        <mxCell id="s01WvW6I6IR07NwVpGXd-74" value="" style="endArrow=block;startArrow=none;endFill=0;startFill=0;endSize=8;html=1;verticalAlign=bottom;dashed=1;labelBackgroundColor=none;rounded=0;" edge="1" parent="1" source="s01WvW6I6IR07NwVpGXd-73" target="s01WvW6I6IR07NwVpGXd-64">
          <mxGeometry width="160" relative="1" as="geometry">
            <mxPoint x="64" y="245" as="sourcePoint" />
            <mxPoint x="188" y="325" as="targetPoint" />
          </mxGeometry>
        </mxCell>
        <mxCell id="s01WvW6I6IR07NwVpGXd-75" value="" style="group" vertex="1" connectable="0" parent="1">
          <mxGeometry x="-60" y="320" width="180" height="120" as="geometry" />
        </mxCell>
        <mxCell id="s01WvW6I6IR07NwVpGXd-76" value="" style="shape=ellipse;container=0;horizontal=1;horizontalStack=0;resizeParent=1;resizeParentMax=0;resizeLast=0;html=1;dashed=0;collapsible=0;fillColor=#dae8fc;strokeColor=#6c8ebf;" vertex="1" parent="s01WvW6I6IR07NwVpGXd-75">
          <mxGeometry width="180" height="120" as="geometry" />
        </mxCell>
        <mxCell id="s01WvW6I6IR07NwVpGXd-77" value="@RequestBody" style="html=1;strokeColor=none;fillColor=none;align=center;verticalAlign=middle;rotatable=0;whiteSpace=wrap;fontStyle=1;container=0;" vertex="1" parent="s01WvW6I6IR07NwVpGXd-75">
          <mxGeometry y="5" width="180" height="30" as="geometry" />
        </mxCell>
        <mxCell id="s01WvW6I6IR07NwVpGXd-78" value="" style="line;strokeWidth=1;fillColor=none;rotatable=0;labelPosition=right;points=[];portConstraint=eastwest;dashed=0;resizeWidth=1;container=0;" vertex="1" parent="s01WvW6I6IR07NwVpGXd-75">
          <mxGeometry x="9" y="30" width="162" height="10" as="geometry" />
        </mxCell>
        <mxCell id="s01WvW6I6IR07NwVpGXd-79" value="Converts&amp;nbsp;&lt;strong data-end=&quot;5314&quot; data-start=&quot;5293&quot;&gt;JSON request body&lt;/strong&gt;&amp;nbsp;to a Java objects" style="text;html=1;align=center;verticalAlign=middle;rotatable=0;fillColor=none;strokeColor=none;whiteSpace=wrap;container=0;" vertex="1" parent="s01WvW6I6IR07NwVpGXd-75">
          <mxGeometry y="40" width="180" height="70" as="geometry" />
        </mxCell>
        <mxCell id="s01WvW6I6IR07NwVpGXd-80" value="" style="endArrow=block;startArrow=none;endFill=0;startFill=0;endSize=8;html=1;verticalAlign=bottom;dashed=1;labelBackgroundColor=none;rounded=0;entryX=0.093;entryY=0.357;entryDx=0;entryDy=0;exitX=1;exitY=0.25;exitDx=0;exitDy=0;entryPerimeter=0;" edge="1" parent="1" source="s01WvW6I6IR07NwVpGXd-79" target="s01WvW6I6IR07NwVpGXd-64">
          <mxGeometry width="160" relative="1" as="geometry">
            <mxPoint x="70" y="303" as="sourcePoint" />
            <mxPoint x="167" y="370" as="targetPoint" />
          </mxGeometry>
        </mxCell>
        <mxCell id="s01WvW6I6IR07NwVpGXd-81" value="Response" style="ellipse;whiteSpace=wrap;html=1;fontStyle=3;fillColor=#f5f5f5;fontColor=#333333;strokeColor=#666666;" vertex="1" parent="1">
          <mxGeometry x="487" y="255" width="140" height="70" as="geometry" />
        </mxCell>
        <mxCell id="s01WvW6I6IR07NwVpGXd-84" value="" style="fontSize=12;html=1;endArrow=ERmandOne;rounded=0;entryX=0.5;entryY=1;entryDx=0;entryDy=0;exitX=0.5;exitY=0;exitDx=0;exitDy=0;" edge="1" parent="1" source="s01WvW6I6IR07NwVpGXd-18" target="s01WvW6I6IR07NwVpGXd-81">
          <mxGeometry width="100" height="100" relative="1" as="geometry">
            <mxPoint x="60" y="810" as="sourcePoint" />
            <mxPoint x="160" y="710" as="targetPoint" />
          </mxGeometry>
        </mxCell>
        <mxCell id="s01WvW6I6IR07NwVpGXd-85" value="" style="group" vertex="1" connectable="0" parent="1">
          <mxGeometry x="590" y="60" width="180" height="120" as="geometry" />
        </mxCell>
        <mxCell id="s01WvW6I6IR07NwVpGXd-86" value="" style="shape=ellipse;container=0;horizontal=1;horizontalStack=0;resizeParent=1;resizeParentMax=0;resizeLast=0;html=1;dashed=0;collapsible=0;fillColor=#dae8fc;strokeColor=#6c8ebf;" vertex="1" parent="s01WvW6I6IR07NwVpGXd-85">
          <mxGeometry width="180" height="120" as="geometry" />
        </mxCell>
        <mxCell id="s01WvW6I6IR07NwVpGXd-87" value="@ResponseStatus" style="html=1;strokeColor=none;fillColor=none;align=center;verticalAlign=middle;rotatable=0;whiteSpace=wrap;fontStyle=1;container=0;" vertex="1" parent="s01WvW6I6IR07NwVpGXd-85">
          <mxGeometry y="5" width="180" height="30" as="geometry" />
        </mxCell>
        <mxCell id="s01WvW6I6IR07NwVpGXd-88" value="" style="line;strokeWidth=1;fillColor=none;rotatable=0;labelPosition=right;points=[];portConstraint=eastwest;dashed=0;resizeWidth=1;container=0;" vertex="1" parent="s01WvW6I6IR07NwVpGXd-85">
          <mxGeometry x="9" y="30" width="162" height="10" as="geometry" />
        </mxCell>
        <mxCell id="s01WvW6I6IR07NwVpGXd-89" value="Sets a&amp;nbsp;&lt;strong data-end=&quot;5390&quot; data-start=&quot;5363&quot;&gt;custom HTTP status code&lt;/strong&gt;" style="text;html=1;align=center;verticalAlign=middle;rotatable=0;fillColor=none;strokeColor=none;whiteSpace=wrap;container=0;" vertex="1" parent="s01WvW6I6IR07NwVpGXd-85">
          <mxGeometry y="40" width="180" height="70" as="geometry" />
        </mxCell>
        <mxCell id="s01WvW6I6IR07NwVpGXd-90" value="" style="endArrow=block;startArrow=none;endFill=0;startFill=0;endSize=8;html=1;verticalAlign=bottom;dashed=1;labelBackgroundColor=none;rounded=0;" edge="1" parent="1" source="s01WvW6I6IR07NwVpGXd-89" target="s01WvW6I6IR07NwVpGXd-81">
          <mxGeometry width="160" relative="1" as="geometry">
            <mxPoint x="418" y="981" as="sourcePoint" />
            <mxPoint x="240" y="710" as="targetPoint" />
          </mxGeometry>
        </mxCell>
        <mxCell id="s01WvW6I6IR07NwVpGXd-95" value="" style="group" vertex="1" connectable="0" parent="1">
          <mxGeometry x="-370" y="660" width="180" height="120" as="geometry" />
        </mxCell>
        <mxCell id="s01WvW6I6IR07NwVpGXd-96" value="" style="shape=ellipse;container=0;horizontal=1;horizontalStack=0;resizeParent=1;resizeParentMax=0;resizeLast=0;html=1;dashed=0;collapsible=0;fillColor=#dae8fc;strokeColor=#6c8ebf;" vertex="1" parent="s01WvW6I6IR07NwVpGXd-95">
          <mxGeometry width="180" height="120" as="geometry" />
        </mxCell>
        <mxCell id="s01WvW6I6IR07NwVpGXd-97" value="@RestControllerAdvice" style="html=1;strokeColor=none;fillColor=none;align=center;verticalAlign=middle;rotatable=0;whiteSpace=wrap;fontStyle=1;container=0;" vertex="1" parent="s01WvW6I6IR07NwVpGXd-95">
          <mxGeometry y="5" width="180" height="30" as="geometry" />
        </mxCell>
        <mxCell id="s01WvW6I6IR07NwVpGXd-98" value="" style="line;strokeWidth=1;fillColor=none;rotatable=0;labelPosition=right;points=[];portConstraint=eastwest;dashed=0;resizeWidth=1;container=0;" vertex="1" parent="s01WvW6I6IR07NwVpGXd-95">
          <mxGeometry x="9" y="30" width="162" height="10" as="geometry" />
        </mxCell>
        <mxCell id="s01WvW6I6IR07NwVpGXd-99" value="Handles &lt;strong data-end=&quot;4368&quot; data-start=&quot;4345&quot;&gt;exceptions globally&lt;/strong&gt; across all controllers." style="text;html=1;align=center;verticalAlign=middle;rotatable=0;fillColor=none;strokeColor=none;whiteSpace=wrap;container=0;" vertex="1" parent="s01WvW6I6IR07NwVpGXd-95">
          <mxGeometry y="40" width="180" height="70" as="geometry" />
        </mxCell>
        <mxCell id="s01WvW6I6IR07NwVpGXd-101" value="" style="group" vertex="1" connectable="0" parent="1">
          <mxGeometry x="-100" y="660" width="180" height="120" as="geometry" />
        </mxCell>
        <mxCell id="s01WvW6I6IR07NwVpGXd-102" value="" style="shape=ellipse;container=0;horizontal=1;horizontalStack=0;resizeParent=1;resizeParentMax=0;resizeLast=0;html=1;dashed=0;collapsible=0;fillColor=#dae8fc;strokeColor=#6c8ebf;" vertex="1" parent="s01WvW6I6IR07NwVpGXd-101">
          <mxGeometry width="180" height="120" as="geometry" />
        </mxCell>
        <mxCell id="s01WvW6I6IR07NwVpGXd-103" value="@ExceptionHandler" style="html=1;strokeColor=none;fillColor=none;align=center;verticalAlign=middle;rotatable=0;whiteSpace=wrap;fontStyle=1;container=0;" vertex="1" parent="s01WvW6I6IR07NwVpGXd-101">
          <mxGeometry y="5" width="180" height="30" as="geometry" />
        </mxCell>
        <mxCell id="s01WvW6I6IR07NwVpGXd-104" value="" style="line;strokeWidth=1;fillColor=none;rotatable=0;labelPosition=right;points=[];portConstraint=eastwest;dashed=0;resizeWidth=1;container=0;" vertex="1" parent="s01WvW6I6IR07NwVpGXd-101">
          <mxGeometry x="9" y="30" width="162" height="10" as="geometry" />
        </mxCell>
        <mxCell id="s01WvW6I6IR07NwVpGXd-105" value="Used for &lt;strong data-end=&quot;3624&quot; data-start=&quot;3599&quot;&gt;custom error handling&lt;/strong&gt; inside a controller or RestControllerAdvice." style="text;html=1;align=center;verticalAlign=middle;rotatable=0;fillColor=none;strokeColor=none;whiteSpace=wrap;container=0;" vertex="1" parent="s01WvW6I6IR07NwVpGXd-101">
          <mxGeometry y="40" width="180" height="70" as="geometry" />
        </mxCell>
        <mxCell id="s01WvW6I6IR07NwVpGXd-106" value="" style="fontSize=12;html=1;endArrow=ERoneToMany;rounded=0;exitX=1;exitY=0.25;exitDx=0;exitDy=0;entryX=0;entryY=0.25;entryDx=0;entryDy=0;" edge="1" parent="1" source="s01WvW6I6IR07NwVpGXd-99" target="s01WvW6I6IR07NwVpGXd-105">
          <mxGeometry width="100" height="100" relative="1" as="geometry">
            <mxPoint x="367" y="600" as="sourcePoint" />
            <mxPoint x="300" y="660" as="targetPoint" />
          </mxGeometry>
        </mxCell>
        <mxCell id="s01WvW6I6IR07NwVpGXd-109" value="defines" style="edgeLabel;html=1;align=center;verticalAlign=middle;resizable=0;points=[];" vertex="1" connectable="0" parent="s01WvW6I6IR07NwVpGXd-106">
          <mxGeometry x="-0.05" y="-1" relative="1" as="geometry">
            <mxPoint as="offset" />
          </mxGeometry>
        </mxCell>
        <mxCell id="s01WvW6I6IR07NwVpGXd-107" value="" style="fontSize=12;html=1;endArrow=ERoneToMany;rounded=0;exitX=0.5;exitY=1;exitDx=0;exitDy=0;startArrow=none;startFill=0;" edge="1" parent="1" source="s01WvW6I6IR07NwVpGXd-4" target="s01WvW6I6IR07NwVpGXd-103">
          <mxGeometry width="100" height="100" relative="1" as="geometry">
            <mxPoint x="50" y="855" as="sourcePoint" />
            <mxPoint x="-40" y="865" as="targetPoint" />
          </mxGeometry>
        </mxCell>
        <mxCell id="s01WvW6I6IR07NwVpGXd-108" value="defines" style="edgeLabel;html=1;align=center;verticalAlign=middle;resizable=0;points=[];" vertex="1" connectable="0" parent="s01WvW6I6IR07NwVpGXd-107">
          <mxGeometry x="-0.0462" relative="1" as="geometry">
            <mxPoint as="offset" />
          </mxGeometry>
        </mxCell>
        <mxCell id="s01WvW6I6IR07NwVpGXd-111" value="" style="group" vertex="1" connectable="0" parent="1">
          <mxGeometry x="110" y="620" width="180" height="120" as="geometry" />
        </mxCell>
        <mxCell id="s01WvW6I6IR07NwVpGXd-112" value="" style="shape=ellipse;container=0;horizontal=1;horizontalStack=0;resizeParent=1;resizeParentMax=0;resizeLast=0;html=1;dashed=0;collapsible=0;fillColor=#dae8fc;strokeColor=#6c8ebf;" vertex="1" parent="s01WvW6I6IR07NwVpGXd-111">
          <mxGeometry width="180" height="120" as="geometry" />
        </mxCell>
        <mxCell id="s01WvW6I6IR07NwVpGXd-113" value="@CrossOrigin" style="html=1;strokeColor=none;fillColor=none;align=center;verticalAlign=middle;rotatable=0;whiteSpace=wrap;fontStyle=1;container=0;" vertex="1" parent="s01WvW6I6IR07NwVpGXd-111">
          <mxGeometry y="5" width="180" height="30" as="geometry" />
        </mxCell>
        <mxCell id="s01WvW6I6IR07NwVpGXd-114" value="" style="line;strokeWidth=1;fillColor=none;rotatable=0;labelPosition=right;points=[];portConstraint=eastwest;dashed=0;resizeWidth=1;container=0;" vertex="1" parent="s01WvW6I6IR07NwVpGXd-111">
          <mxGeometry x="9" y="30" width="162" height="10" as="geometry" />
        </mxCell>
        <mxCell id="s01WvW6I6IR07NwVpGXd-115" value="Enables &lt;strong data-end=&quot;4052&quot; data-start=&quot;4012&quot;&gt;Cross-Origin Resource Sharing (CORS)&lt;/strong&gt;." style="text;html=1;align=center;verticalAlign=middle;rotatable=0;fillColor=none;strokeColor=none;whiteSpace=wrap;container=0;" vertex="1" parent="s01WvW6I6IR07NwVpGXd-111">
          <mxGeometry y="40" width="180" height="70" as="geometry" />
        </mxCell>
        <mxCell id="s01WvW6I6IR07NwVpGXd-116" style="rounded=0;orthogonalLoop=1;jettySize=auto;html=1;entryX=0.5;entryY=1;entryDx=0;entryDy=0;exitX=0.906;exitY=0.833;exitDx=0;exitDy=0;exitPerimeter=0;" edge="1" parent="1" source="s01WvW6I6IR07NwVpGXd-113" target="s01WvW6I6IR07NwVpGXd-18">
          <mxGeometry relative="1" as="geometry">
            <mxPoint x="300" y="650" as="sourcePoint" />
            <mxPoint x="357" y="680" as="targetPoint" />
          </mxGeometry>
        </mxCell>
        <mxCell id="s01WvW6I6IR07NwVpGXd-117" value="Enable CORS" style="edgeLabel;html=1;align=center;verticalAlign=middle;resizable=0;points=[];" vertex="1" connectable="0" parent="s01WvW6I6IR07NwVpGXd-116">
          <mxGeometry x="-0.0444" y="1" relative="1" as="geometry">
            <mxPoint as="offset" />
          </mxGeometry>
        </mxCell>
        <mxCell id="s01WvW6I6IR07NwVpGXd-118" value="" style="group" vertex="1" connectable="0" parent="1">
          <mxGeometry x="230" y="140" width="180" height="120" as="geometry" />
        </mxCell>
        <mxCell id="s01WvW6I6IR07NwVpGXd-119" value="" style="shape=ellipse;container=0;horizontal=1;horizontalStack=0;resizeParent=1;resizeParentMax=0;resizeLast=0;html=1;dashed=0;collapsible=0;fillColor=#dae8fc;strokeColor=#6c8ebf;" vertex="1" parent="s01WvW6I6IR07NwVpGXd-118">
          <mxGeometry width="180" height="120" as="geometry" />
        </mxCell>
        <mxCell id="s01WvW6I6IR07NwVpGXd-120" value="@RequestHeader" style="html=1;strokeColor=none;fillColor=none;align=center;verticalAlign=middle;rotatable=0;whiteSpace=wrap;fontStyle=1;container=0;" vertex="1" parent="s01WvW6I6IR07NwVpGXd-118">
          <mxGeometry y="5" width="180" height="30" as="geometry" />
        </mxCell>
        <mxCell id="s01WvW6I6IR07NwVpGXd-121" value="" style="line;strokeWidth=1;fillColor=none;rotatable=0;labelPosition=right;points=[];portConstraint=eastwest;dashed=0;resizeWidth=1;container=0;" vertex="1" parent="s01WvW6I6IR07NwVpGXd-118">
          <mxGeometry x="9" y="30" width="162" height="10" as="geometry" />
        </mxCell>
        <mxCell id="s01WvW6I6IR07NwVpGXd-122" value="Map an &lt;b&gt;HTTP header&lt;/b&gt; to a method parameter" style="text;html=1;align=center;verticalAlign=middle;rotatable=0;fillColor=none;strokeColor=none;whiteSpace=wrap;container=0;" vertex="1" parent="s01WvW6I6IR07NwVpGXd-118">
          <mxGeometry y="40" width="180" height="70" as="geometry" />
        </mxCell>
        <mxCell id="s01WvW6I6IR07NwVpGXd-123" value="" style="endArrow=block;startArrow=none;endFill=0;startFill=0;endSize=8;html=1;verticalAlign=bottom;dashed=1;labelBackgroundColor=none;rounded=0;entryX=0.707;entryY=0;entryDx=0;entryDy=0;exitX=0.467;exitY=1;exitDx=0;exitDy=0;exitPerimeter=0;entryPerimeter=0;" edge="1" parent="1" source="s01WvW6I6IR07NwVpGXd-119" target="s01WvW6I6IR07NwVpGXd-64">
          <mxGeometry width="160" relative="1" as="geometry">
            <mxPoint x="340" y="130" as="sourcePoint" />
            <mxPoint x="237" y="335" as="targetPoint" />
          </mxGeometry>
        </mxCell>
        <mxCell id="s01WvW6I6IR07NwVpGXd-131" value="" style="group" vertex="1" connectable="0" parent="1">
          <mxGeometry x="390" y="60" width="180" height="120" as="geometry" />
        </mxCell>
        <mxCell id="s01WvW6I6IR07NwVpGXd-132" value="" style="shape=ellipse;container=0;horizontal=1;horizontalStack=0;resizeParent=1;resizeParentMax=0;resizeLast=0;html=1;dashed=0;collapsible=0;fillColor=#dae8fc;strokeColor=#6c8ebf;" vertex="1" parent="s01WvW6I6IR07NwVpGXd-131">
          <mxGeometry width="180" height="120" as="geometry" />
        </mxCell>
        <mxCell id="s01WvW6I6IR07NwVpGXd-133" value="ResponseEntity" style="html=1;strokeColor=none;fillColor=none;align=center;verticalAlign=middle;rotatable=0;whiteSpace=wrap;fontStyle=1;container=0;" vertex="1" parent="s01WvW6I6IR07NwVpGXd-131">
          <mxGeometry y="5" width="180" height="30" as="geometry" />
        </mxCell>
        <mxCell id="s01WvW6I6IR07NwVpGXd-134" value="" style="line;strokeWidth=1;fillColor=none;rotatable=0;labelPosition=right;points=[];portConstraint=eastwest;dashed=0;resizeWidth=1;container=0;" vertex="1" parent="s01WvW6I6IR07NwVpGXd-131">
          <mxGeometry x="9" y="30" width="162" height="10" as="geometry" />
        </mxCell>
        <mxCell id="s01WvW6I6IR07NwVpGXd-135" value="Sets a&amp;nbsp;&lt;strong data-end=&quot;5390&quot; data-start=&quot;5363&quot;&gt;custom HTTP status code&lt;/strong&gt;" style="text;html=1;align=center;verticalAlign=middle;rotatable=0;fillColor=none;strokeColor=none;whiteSpace=wrap;container=0;" vertex="1" parent="s01WvW6I6IR07NwVpGXd-131">
          <mxGeometry y="40" width="180" height="70" as="geometry" />
        </mxCell>
        <mxCell id="s01WvW6I6IR07NwVpGXd-137" value="" style="endArrow=block;startArrow=none;endFill=0;startFill=0;endSize=8;html=1;verticalAlign=bottom;dashed=1;labelBackgroundColor=none;rounded=0;exitX=0.5;exitY=1;exitDx=0;exitDy=0;" edge="1" parent="1" source="s01WvW6I6IR07NwVpGXd-132" target="s01WvW6I6IR07NwVpGXd-81">
          <mxGeometry width="160" relative="1" as="geometry">
            <mxPoint x="698" y="190" as="sourcePoint" />
            <mxPoint x="603" y="270" as="targetPoint" />
          </mxGeometry>
        </mxCell>
        <mxCell id="s01WvW6I6IR07NwVpGXd-140" value="Custom Exceptions" style="ellipse;whiteSpace=wrap;html=1;fontStyle=3;fillColor=#f5f5f5;fontColor=#333333;strokeColor=#666666;" vertex="1" parent="1">
          <mxGeometry x="760" y="215" width="140" height="70" as="geometry" />
        </mxCell>
        <mxCell id="s01WvW6I6IR07NwVpGXd-141" style="rounded=0;orthogonalLoop=1;jettySize=auto;html=1;entryX=0.5;entryY=0;entryDx=0;entryDy=0;" edge="1" parent="1" source="s01WvW6I6IR07NwVpGXd-89" target="s01WvW6I6IR07NwVpGXd-140">
          <mxGeometry relative="1" as="geometry" />
        </mxCell>
        <mxCell id="s01WvW6I6IR07NwVpGXd-142" value="annotates" style="edgeLabel;html=1;align=center;verticalAlign=middle;resizable=0;points=[];" vertex="1" connectable="0" parent="s01WvW6I6IR07NwVpGXd-141">
          <mxGeometry x="-0.2524" y="-2" relative="1" as="geometry">
            <mxPoint as="offset" />
          </mxGeometry>
        </mxCell>
      </root>
    </mxGraphModel>
  </diagram>
</mxfile>
